<?xml version="1.0" encoding="iso-8859-1"?>
<!-- Generator: Adobe Illustrator 18.0.0, SVG Export Plug-In . SVG Version: 6.00 Build 0)  -->
<!DOCTYPE svg PUBLIC "-//W3C//DTD SVG 1.1//EN" "http://www.w3.org/Graphics/SVG/1.1/DTD/svg11.dtd">
<svg version="1.1" id="Capa_1" xmlns="http://www.w3.org/2000/svg" xmlns:xlink="http://www.w3.org/1999/xlink" x="0px" y="0px"
	 viewBox="0 0 454.389 454.389" style="enable-background:new 0 0 454.389 454.389;" xml:space="preserve">
<g>
	<path d="M247.219,92.966c-4.055-0.833-8.022,1.782-8.854,5.84c-0.833,4.058,1.781,8.022,5.839,8.854
		c39.104,8.023,67.485,42.835,67.485,82.775v63.755c0,4.142,3.357,7.5,7.5,7.5s7.5-3.358,7.5-7.5v-63.755
		C326.689,143.405,293.267,102.413,247.219,92.966z"/>
	<path d="M351.689,301.747V190.435c0-54.97-35.814-101.726-85.331-118.177c4.895-7.521,7.583-16.363,7.583-25.507
		c0-25.778-20.972-46.75-46.75-46.75s-46.75,20.972-46.75,46.75c0,9.146,2.689,17.988,7.588,25.508
		C138.512,88.71,102.7,135.466,102.7,190.435v111.313c-25.022,7.961-43.203,31.413-43.203,59.038v32.254c0,4.142,3.358,7.5,7.5,7.5
		h99.323c3.713,30.301,29.587,53.85,60.874,53.85c31.288,0,57.163-23.549,60.875-53.85h99.323c4.143,0,7.5-3.358,7.5-7.5v-32.254
		C394.892,333.16,376.711,309.708,351.689,301.747z M195.441,46.75c0-17.507,14.243-31.75,31.75-31.75
		c17.506,0,31.75,14.243,31.75,31.75c0,7.958-2.995,15.583-8.311,21.413c-7.593-1.452-15.425-2.222-23.435-2.222h0
		c-8.01,0-15.842,0.77-23.436,2.222C198.438,62.336,195.441,54.71,195.441,46.75z M117.7,298.843V190.435
		c0-60.375,49.119-109.494,109.495-109.494c60.375,0,109.494,49.119,109.494,109.494v108.408H117.7z M227.194,439.389
		c-23.003,0-42.137-16.847-45.733-38.85h91.468C269.332,422.542,250.197,439.389,227.194,439.389z M379.892,385.539H74.497v-24.754
		c0-25.884,21.058-46.942,46.942-46.942h211.51c25.884,0,46.942,21.058,46.942,46.942V385.539z"/>
	<path d="M332.949,323.843H221.631c-4.142,0-7.5,3.358-7.5,7.5s3.358,7.5,7.5,7.5h111.318c12.099,0,21.942,9.843,21.942,21.942
		v7.254c0,4.142,3.357,7.5,7.5,7.5s7.5-3.358,7.5-7.5v-7.254C369.892,340.415,353.319,323.843,332.949,323.843z"/>
	<path d="M323.347,274.953c-2.814-1.903-6.684-1.588-9.196,0.679c-2.231,2.014-3.021,5.259-2.023,8.084
		c1.06,3.001,4.063,5.053,7.243,4.972c3.122-0.08,5.967-2.175,6.932-5.148C327.322,280.406,326.156,276.76,323.347,274.953
		C322.947,274.683,323.767,275.223,323.347,274.953z"/>
</g>
<g>
</g>
<g>
</g>
<g>
</g>
<g>
</g>
<g>
</g>
<g>
</g>
<g>
</g>
<g>
</g>
<g>
</g>
<g>
</g>
<g>
</g>
<g>
</g>
<g>
</g>
<g>
</g>
<g>
</g>
</svg>
