<?xml version="1.0" encoding="iso-8859-1"?>
<!-- Generator: Adobe Illustrator 18.0.0, SVG Export Plug-In . SVG Version: 6.00 Build 0)  -->
<!DOCTYPE svg PUBLIC "-//W3C//DTD SVG 1.1//EN" "http://www.w3.org/Graphics/SVG/1.1/DTD/svg11.dtd">
<svg version="1.1" id="Capa_1" xmlns="http://www.w3.org/2000/svg" xmlns:xlink="http://www.w3.org/1999/xlink" x="0px" y="0px"
	 viewBox="0 0 237.169 237.169" style="enable-background:new 0 0 237.169 237.169;" xml:space="preserve">
<g>
	<path d="M234.512,22.656c-0.014-0.587-0.336-1.176-0.954-1.337c-2.284-0.596-4.656-0.221-6.772,0.742
		c-32.335-1.182-64.692-2.678-97.055-4.061c1.182-3.78,0.303-9.139-0.814-12.752c-0.946-3.06-3.207-5.44-6.591-5.235
		c-8.929,0.54-8.498,11.296-6.429,17.401c-36.072-1.494-72.149-2.763-108.21-3.194c-1.772-0.021-1.742,2.623,0,2.733
		c73.227,4.636,146.784,5.829,220.101,8.681c0.686,0.027,1.138-0.293,1.41-0.732c0.575,0.02,1.142-0.001,1.698-0.086
		c0.196-0.003,0.391-0.017,0.586-0.026c-0.706,51.274-2.177,102.639-1.486,153.915c-0.238-0.126-0.511-0.214-0.851-0.204
		c-14.159,0.419-28.283,0.131-42.396-0.425c-0.198-0.344-0.383-0.696-0.581-1.04c-0.365-0.633-1.259-0.078-0.963,0.563
		c0.065,0.14,0.135,0.277,0.2,0.418c-22.465-0.913-44.905-2.474-67.416-2.963c-37.508-0.815-74.221,1.629-111.654-2.448
		c0.062-1.554,0.097-3.115,0.154-4.67c4.323-0.186,8.64-0.489,12.946-0.91c0.321-0.031,0.482-0.258,0.552-0.504
		c66.75,4.799,135.095,5.689,201.857,1.427c1.136-0.073,1.159-1.807,0-1.785c-0.507,0.01-1.013,0.016-1.521,0.026
		c0.136-0.088,0.244-0.211,0.239-0.398c-1.031-44.365-2.305-87.919,2.909-132.134c0.184-1.566-2.271-1.552-2.454,0
		c-5.149,43.586-7.834,88.665-1.496,132.275c0.019,0.128,0.091,0.206,0.173,0.268c-6.967,0.133-13.923,0.242-20.878,0.346
		c0.586-3.689,2.226-9.433-2.232-10.043c-0.475-0.065-0.973-0.086-1.483-0.085c-0.053-1.001-0.129-1.569-0.333-2.831
		c-0.089-0.553-0.723-0.944-1.245-0.947c-4.68-0.033-9.36-0.08-14.041-0.09c-3.578-0.008-7.827-0.691-11.243,0.338
		c-0.304,0.092-0.595,0.34-0.664,0.664c-0.309,1.462-0.045,2.779,0.443,4.067c-0.976-0.124-1.952-0.242-2.93-0.393
		c-0.899-0.139-1.535,0.346-1.638,1.248c-0.355,3.101-0.158,5.593,0.652,8.453c-49.029,0.342-97.91-0.183-147.116-2.071
		c-0.651-0.025-0.814,0.626-0.575,1.07c-3.299,0.191-6.593,0.44-9.881,0.772c0.068-1.911,0.107-3.829,0.168-5.742
		c2.555,0.035,5.07-0.217,7.568-0.925c0.653-0.186,0.36-1.072-0.272-0.986c-2.416,0.329-4.831,0.494-7.255,0.508
		c0.095-3.096,0.106-6.209,0.183-9.308c0.937-0.107,1.864-0.296,2.757-0.668c0.61-0.254,0.396-1.132-0.277-1.004
		c-0.833,0.158-1.642,0.263-2.454,0.361c0.079-3.333,0.086-6.679,0.147-10.015c1.244,0.06,2.489,0.117,3.731,0.096
		c0.813-0.013,0.815-1.251,0-1.264c-1.236-0.021-2.476,0.035-3.715,0.095c0.046-2.638,0.043-5.283,0.079-7.923
		c1.279-0.208,2.561-0.4,3.831-0.663c0.656-0.136,0.521-1.271-0.16-1.187c-1.226,0.152-2.441,0.373-3.658,0.574
		c0.052-4.077,0.05-8.16,0.08-12.239c1.472-0.08,2.946-0.194,4.386-0.396c0.695-0.098,0.53-1.257-0.166-1.224
		c-1.395,0.069-2.807,0.228-4.212,0.419c0.015-2.265,0.004-4.531,0.013-6.796c1.151-0.276,2.285-0.353,3.516-0.407
		c0.763-0.034,0.871-1.043,0.176-1.296c-1.231-0.447-2.482-0.336-3.689,0.02c0.013-3.93-0.049-7.857-0.053-11.788
		c1.199,0.022,2.396,0.011,3.572-0.114c0.943-0.1,0.945-1.369,0-1.469c-1.178-0.125-2.378-0.136-3.58-0.114
		c-0.004-2.927-0.048-5.849-0.06-8.776c1.405,0.046,2.784-0.161,4.101-0.8c0.865-0.42,0.253-1.777-0.645-1.529
		c-1.18,0.325-2.304,0.501-3.468,0.53c-0.006-1.51-0.03-3.017-0.038-4.528c1.418-0.506,2.845-0.583,4.346-0.588
		c0.715-0.002,0.828-1.011,0.165-1.224c-1.598-0.512-3.043-0.276-4.523,0.324c-0.042-7.415-0.124-14.821-0.204-22.228
		c1.305,0.027,2.611,0.038,3.906-0.046c0.789-0.051,0.79-1.176,0-1.227c-1.3-0.084-2.609-0.073-3.919-0.045
		c-0.027-2.396-0.086-4.779-0.116-7.174c1.65,0.005,3.281-0.189,4.902-0.676c0.771-0.232,0.451-1.369-0.331-1.201
		C9.823,44.383,8.3,44.51,6.768,44.527c-0.04-3.067-0.107-6.122-0.149-9.188c2.052-0.118,4.101-0.13,6.184-0.056
		c0.697,0.024,0.882-1.125,0.168-1.242c-2.124-0.346-4.255-0.307-6.374-0.07C6.548,30.6,6.485,27.237,6.432,23.869
		c0.111,0.097,0.237,0.185,0.427,0.191c7.93,0.257,15.868,0.202,23.799,0.037c0.957-0.02,0.958-1.468,0-1.487
		c-7.93-0.165-15.87-0.22-23.799,0.037c-0.197,0.006-0.332,0.095-0.444,0.199c-0.038-2.389-0.061-4.786-0.116-7.168
		c-0.025-1.077-1.645-1.078-1.673,0C4.465,21.873,4.343,28.1,4.211,34.319c-0.285,0.052-0.571,0.09-0.855,0.147
		c-0.736,0.149-0.413,1.226,0.306,1.112c0.175-0.028,0.347-0.018,0.521-0.042c-0.063,3.001-0.139,5.991-0.2,8.993
		c-0.461,0.156-0.464,0.806-0.024,1.096c-0.052,2.577-0.124,5.141-0.172,7.721c-0.197,0.22-0.202,0.582-0.018,0.812
		C3.534,67.241,3.36,80.349,3.275,93.458c-0.536,0.252-0.538,1.004-0.005,1.26c-0.109,18.116-0.076,36.233,0.302,54.287
		c-0.226-0.018-0.442,0.019-0.671-0.011c-0.638-0.083-0.795,1.033-0.153,1.132c0.28,0.044,0.563,0.062,0.844,0.094
		c0.069,3.165,0.071,6.343,0.159,9.504c-0.21,0.231-0.195,0.638,0.028,0.891c0.124,4.356,0.238,8.714,0.402,13.06
		c0.037,0.976,1.063,1.223,1.673,0.803c0.074,0.044,0.103,0.128,0.195,0.152c14.787,3.882,30.039,5.041,45.417,5.149
		c-6.932,14.804-13.112,32.096-16.641,47.73c-0.108,0.478,0.179,0.882,0.551,1.1c-0.185,1.851,0.21,3.726,1.462,5.343
		c1.618,2.09,5.809,4.371,8.306,2.559c0.165-0.12,0.277-0.271,0.345-0.433c0.597,0.304,1.49,0.167,1.704-0.606
		c5.377-19.365,11.115-37.311,18.813-55.883c16.2-0.417,32.42-1.402,48.276-1.124c20.193,0.354,40.338,1.678,60.492,2.671
		c7.549,17.361,15.153,35.071,23.484,52.02c0.332,0.676,1.108,0.689,1.648,0.353c0.82,2.414,3.559,3.938,6.393,3.177
		c3.523-0.947,5.823-4.433,6.343-8.014c0.099-0.074,0.198-0.147,0.298-0.221c0.851-0.63,0.576-1.673-0.228-1.97
		c-0.022-0.318-0.023-0.641-0.077-0.95c-0.124-0.709-0.782-0.958-1.401-0.869c-2.415-4.908-9.396-18.919-10.695-21.37
		c-3.828-7.227-7.721-14.417-11.733-21.541c13.432,0.512,26.873,0.743,40.34,0.282c0.706-0.024,1.166-0.397,1.434-0.876
		c0.621,0.304,1.525,0.053,1.563-0.861c2.143-52.163,1.999-104.483,2.687-156.683C234.837,23.209,234.699,22.908,234.512,22.656z
		 M117.221,17.465c0.011-0.062,0.058-0.097,0.048-0.171c-0.626-4.738-2.311-13.579,4.653-14.665
		c6.837-1.066,4.948,10.824,5.601,15.277C124.09,17.759,120.655,17.608,117.221,17.465z M175.473,154.779
		c2.34,0.069,4.68,0.137,7.02,0.193c2.936,0.069,8.318-0.945,10.023,1.662c-3.249,0.463-6.772,1.526-9.635,1.662
		c-4.437,0.211-8.811,0.022-13.188-0.462C168.746,153.72,173.267,154.714,175.473,154.779z M167.985,160.353
		c1.039-0.2,2.946,0.408,3.976,0.512c4.031,0.408,8.089,0.498,12.134,0.258c2.938-0.175,5.935-0.46,8.828-1.025
		c1.209-0.161,2.389-0.448,3.541-0.86c-0.059,0.705-0.117,1.409-0.176,2.114c0.377,1.379-0.099,3.55-0.372,5.24
		c-9.997,0.143-19.984,0.248-29.964,0.322C165.361,163.953,165,160.927,167.985,160.353z M44.989,234.903
		c-0.024-0.01-0.035-0.032-0.061-0.041c-2.132-0.739-4.089-0.285-5.897-2.054c-1.212-1.186-1.786-2.861-1.799-4.549
		c1.775,0.055,3.55,0.111,5.325,0.166c1.029,0.032,1.031-1.631,0-1.599c-1.732,0.054-3.463,0.108-5.195,0.162
		c0.036-0.216,0.034-0.438,0.09-0.65c0.604-1.406,1.155-2.836,1.702-4.268c1.635,0.056,3.244-0.128,4.827-0.696
		c0.39-0.14,0.239-0.731-0.173-0.627c-1.46,0.368-2.907,0.549-4.37,0.61c0.747-1.989,1.423-4.008,2.107-6.022
		c1.852-0.555,3.706-0.728,5.636-0.516c0.502,0.055,0.49-0.718,0-0.781c-1.853-0.237-3.588-0.034-5.346,0.466
		c0.833-2.472,1.657-4.942,2.486-7.409c1.928,0.087,3.876-0.031,5.691-0.582c0.535-0.162,0.468-1.091-0.139-1.023
		c-1.754,0.197-3.459,0.369-5.172,0.469c0.164-0.485,0.324-0.974,0.489-1.458c0.466-1.364,0.937-2.726,1.404-4.09
		c2.027-0.054,4.094-0.142,6.062-0.492c0.741-0.132,0.556-1.307-0.175-1.296c-1.805,0.025-3.651,0.287-5.471,0.58
		c0.688-2.004,1.375-4.009,2.065-6.013c2.961-0.316,5.976-0.551,8.856-1.25C51.501,205.539,46.832,220.516,44.989,234.903z
		 M58.331,191.14c-0.074-0.243-0.25-0.452-0.56-0.44c-2.749,0.11-5.497,0.636-8.223,1.119l0.01-0.03
		c0.356-1.032,1.84-4.181,2.986-7.044c1.52,0.031,3.034,0.049,4.557-0.062c0.884-0.064,0.886-1.311,0-1.376
		c-1.331-0.097-2.656-0.093-3.982-0.072c0.556-1.535,0.928-2.853,0.792-3.442c3.511,0,7.031-0.097,10.55-0.178
		C62.276,183.293,60.24,187.165,58.331,191.14z M200.069,207.899c2.134,4.205,5.678,15.477,9.72,19.582
		c-0.312,2.062-0.576,4.069-2.272,5.661c-2.327,2.185-7.42,1.452-6.904-2.559c0.055-0.43-0.61-0.481-0.73-0.099
		c-0.019,0.06-0.013,0.115-0.029,0.175c-5.865-17.016-14.369-34.057-23.73-49.461c3.679,0.178,7.358,0.334,11.038,0.48
		C191.315,190.491,195.66,199.21,200.069,207.899z"/>
	<path d="M217.789,31.942c-17.598,4.972-32.165,0.579-49.516,0.672c-14.86,0.079-28.351,0.66-43.442-0.462
		C89.154,29.5,53.316,27.735,17.535,28.144c-0.59,0.007-0.802,0.511-0.716,0.955c-0.613-0.019-1.264,0.359-1.31,1.147
		c-2.559,44.072-5.748,90.296-0.255,134.226c0.084,0.672,1.051,0.713,1.078,0c1.718-44.706-0.928-89.436,1.575-134.226
		c0.011-0.189-0.018-0.354-0.073-0.496c38.284,0.841,76.471,1.866,114.644,5.09c15.572,1.315,31.148,0.073,46.548,1.454
		c14.169,1.271,25.511,2.207,39.439-1.897C220.035,33.936,219.373,31.495,217.789,31.942z"/>
	<path d="M51.907,90.28c-1.077-1.404-2.305-2.662-3.59-3.873c-1.188-1.044-2.401-2.059-3.638-3.046
		c-1.11-9.247,1.76-13.557,8.611-12.93c1.258-0.025,1.644-2.036,0.309-2.283c-6.743-1.242-14.633,2.136-15.217,9.866
		c-0.295,3.896,1.841,6.254,4.595,8.703c6.765,6.018,15.881,18.815,2.023,23.368c-1.621,0.533-1.383,3.022,0.41,3.031
		c6.512,0.035,10.731-6.181,10.62-12.384C55.959,96.845,54.233,93.312,51.907,90.28z"/>
	<path d="M74.802,67.067c0.846-1.152-0.754-2.439-1.844-1.844c-17.643,9.633-15.04,36.459-1.711,48.223
		c1.331,1.175,3.12-0.614,1.946-1.946c-6.594-7.481-10.604-16.997-8.405-27.071C66.323,77.395,70.685,72.676,74.802,67.067z"/>
	<path d="M89.74,110.382c-0.352-13.938-0.512-27.882-0.905-41.817c-0.041-1.44-2.159-1.432-2.231,0
		c-0.745,14.917-0.728,29.891-0.504,44.822c0.032,2.119,3.003,2.476,3.639,0.492l0.629-1.962
		C90.57,111.283,90.234,110.707,89.74,110.382z"/>
	<path d="M101.461,69.889c-0.019-1.395-2.087-1.381-2.157,0c-0.365,7.191-1.086,14.742-1.448,22.259
		c-1.371-0.019-2.74,0.006-4.111,0.146c-1.444,0.147-2.952,0.11-3.976,1.233c-0.307,0.336-0.262,0.868,0.143,1.11
		c1.292,0.771,2.769,0.366,4.221,0.35c1.203-0.014,2.398,0.113,3.595,0.21c-0.184,5.549-0.119,11.049,0.513,16.338
		c0.165,1.38,2.439,2.046,2.703,0.366C103.061,98.429,101.651,83.509,101.461,69.889z"/>
	<path d="M125.453,65.709c-0.841-0.098-1.367,0.558-1.503,1.292c-19.128,4.656-20.958,51.732-0.285,48.86
		c0.749-0.104,0.941-0.916,0.725-1.553c5.767-2.628,8.181-14.893,8.961-19.716C134.692,86.296,137.216,67.08,125.453,65.709z
		 M120.251,112.337c-13.622-7.142-9.282-38.315,4.439-43.655c0.11,0.049,0.208,0.112,0.343,0.131
		C138.111,70.687,129.442,111.919,120.251,112.337z"/>
	<path d="M158.435,67.683c-0.913-1.395-2.872-0.578-2.922,0.737c-0.038-0.021-0.044-0.062-0.088-0.08
		c-11.639-4.74-25.343,44.501-3.302,49.704c0.651,0.154,1.114-0.17,1.32-0.621c3.293-0.06,7.08-4.654,8.414-7.85
		C167.551,95.938,166.545,80.077,158.435,67.683z M160.58,103.13c-0.394,1.538-5.392,16.906-9.642,10.005
		c-0.299-0.485-0.927-0.439-1.299-0.138c-6.345-6.271-7.005-13.552-5.139-23.43c0.787-4.168,4.535-20.87,10.48-19.614
		c0.448,0.095,0.731-0.126,0.883-0.414c4.153,7.014,6.295,14.135,6.194,22.384C162.011,95.719,161.523,99.445,160.58,103.13z"/>
	<path d="M189.543,113.257c-6.667-0.155-8.955,0.019-10.688-6.921c-0.899-3.601-0.493-8.089-0.742-11.812
		c-0.565-8.441-1.171-16.883-1.917-25.311c-0.116-1.312-2.116-1.36-2.082,0c0.331,13.503,0.913,27.015,1.719,40.497
		c0.538,9.002,4.977,7.16,13.71,6.484C191.408,116.05,191.457,113.302,189.543,113.257z"/>
	<path d="M10.198,62.244c-0.86-0.305-1.744-0.5-2.629-0.718c-0.302-0.074-0.43,0.389-0.128,0.466
		c0.884,0.226,1.756,0.472,2.658,0.61C10.332,62.638,10.427,62.325,10.198,62.244z"/>
</g>
<g>
</g>
<g>
</g>
<g>
</g>
<g>
</g>
<g>
</g>
<g>
</g>
<g>
</g>
<g>
</g>
<g>
</g>
<g>
</g>
<g>
</g>
<g>
</g>
<g>
</g>
<g>
</g>
<g>
</g>
</svg>
