<?xml version="1.0" encoding="iso-8859-1"?>
<!-- Generator: Adobe Illustrator 18.0.0, SVG Export Plug-In . SVG Version: 6.00 Build 0)  -->
<!DOCTYPE svg PUBLIC "-//W3C//DTD SVG 1.1//EN" "http://www.w3.org/Graphics/SVG/1.1/DTD/svg11.dtd">
<svg xmlns="http://www.w3.org/2000/svg" xmlns:xlink="http://www.w3.org/1999/xlink" version="1.1" id="Capa_1" x="0px" y="0px" viewBox="0 0 60 60" style="enable-background:new 0 0 60 60;" xml:space="preserve" width="512px" height="512px">
<g>
	<path d="M45.224,0.494H25.776c-6.448,0-12.132,4.216-14.063,10.323C5.031,12.232,0,18.172,0,25.27v11.346   C0,44.348,6.313,50.93,14,51.46v6.48c0,0.675,0.342,1.236,0.893,1.465c0.163,0.067,0.333,0.101,0.504,0.101   c0.374,0,0.749-0.158,1.05-0.459l1.521-1.521c3.89-3.89,9.151-6.032,14.813-6.032h1.443c6.599,0,12.199-4.38,14.09-10.404   C55.017,39.541,60,33.439,60,26.615V15.27C60,7.122,53.372,0.494,45.224,0.494z M34.224,49.494h-1.443   c-6.197,0-11.96,2.351-16.228,6.618L16,56.666v-6.172v-1v-3.155c0-0.553-0.448-1-1-1s-1,0.447-1,1v3.103   C7.4,48.916,2,43.263,2,36.615V25.27c0-6.14,4.356-11.28,10.14-12.499l0.469-0.079c0.022-0.004,0.044-0.006,0.066-0.01   c0.355-0.059,0.694-0.102,1.022-0.133c0.357-0.03,0.715-0.055,1.079-0.055h19.448C41.269,12.494,47,18.226,47,25.27v11.346   c0,0.362-0.025,0.717-0.054,1.071c-0.015,0.172-0.031,0.343-0.054,0.516c-0.013,0.105-0.032,0.208-0.047,0.313   c-0.076,0.491-0.176,0.984-0.31,1.477l-0.154,0.569C44.723,45.737,39.903,49.494,34.224,49.494z M58,26.615   c0,5.579-3.855,10.614-9.186,12.284c0.013-0.078,0.017-0.155,0.028-0.233c0.035-0.254,0.07-0.506,0.093-0.764   C48.975,37.471,49,37.041,49,36.615V25.27c0-8.147-6.628-14.775-14.776-14.775H14.776c-0.278,0-0.56,0.009-0.848,0.028   c1.917-4.794,6.594-8.028,11.848-8.028h19.448C52.269,2.494,58,8.226,58,15.27V26.615z" fill="#FFFFFF"/>
	<path d="M13,27.494c-2.206,0-4,1.794-4,4s1.794,4,4,4s4-1.794,4-4S15.206,27.494,13,27.494z M13,33.494c-1.103,0-2-0.897-2-2   s0.897-2,2-2s2,0.897,2,2S14.103,33.494,13,33.494z" fill="#FFFFFF"/>
	<path d="M25,27.494c-2.206,0-4,1.794-4,4s1.794,4,4,4s4-1.794,4-4S27.206,27.494,25,27.494z M25,33.494c-1.103,0-2-0.897-2-2   s0.897-2,2-2s2,0.897,2,2S26.103,33.494,25,33.494z" fill="#FFFFFF"/>
	<path d="M37,27.494c-2.206,0-4,1.794-4,4s1.794,4,4,4s4-1.794,4-4S39.206,27.494,37,27.494z M37,33.494c-1.103,0-2-0.897-2-2   s0.897-2,2-2s2,0.897,2,2S38.103,33.494,37,33.494z" fill="#FFFFFF"/>
</g>
<g>
</g>
<g>
</g>
<g>
</g>
<g>
</g>
<g>
</g>
<g>
</g>
<g>
</g>
<g>
</g>
<g>
</g>
<g>
</g>
<g>
</g>
<g>
</g>
<g>
</g>
<g>
</g>
<g>
</g>
</svg>
