<?xml version="1.0" encoding="iso-8859-1"?>
<!-- Generator: Adobe Illustrator 18.1.1, SVG Export Plug-In . SVG Version: 6.00 Build 0)  -->
<svg version="1.1" id="Capa_1" xmlns="http://www.w3.org/2000/svg" xmlns:xlink="http://www.w3.org/1999/xlink" x="0px" y="0px"
	 viewBox="0 0 30.56 30.56" style="enable-background:new 0 0 30.56 30.56;" xml:space="preserve">
<g>
	<g>
		<path style="fill:#010002;" d="M30.316,25.151l-1.799-4.914c0.568-1.586,0.856-3.25,0.856-4.957
			c0.002-8.099-6.587-14.688-14.685-14.688C6.589,0.592,0,7.181,0,15.28s6.589,14.688,14.688,14.688
			c2.931,0,5.812-0.894,8.233-2.532l3.611,1.414c0.463,0.182,0.919,0.274,1.354,0.274c0.903,0,1.703-0.402,2.192-1.104
			C30.395,27.571,30.845,26.597,30.316,25.151z M27.888,27.124c-0.179,0-0.389-0.044-0.624-0.138l-4.639-1.815
			c-2.174,1.746-4.931,2.797-7.937,2.797C7.68,27.967,2,22.287,2,15.28S7.68,2.592,14.688,2.592c7.007,0,12.688,5.68,12.688,12.688
			c0,1.75-0.354,3.417-0.995,4.934l2.059,5.625C28.73,26.634,28.484,27.124,27.888,27.124z"/>
		<circle style="fill:#010002;" cx="20.375" cy="15.279" r="1.625"/>
		<circle style="fill:#010002;" cx="14.375" cy="15.279" r="1.625"/>
		<circle style="fill:#010002;" cx="8.375" cy="15.279" r="1.625"/>
	</g>
</g>
<g>
</g>
<g>
</g>
<g>
</g>
<g>
</g>
<g>
</g>
<g>
</g>
<g>
</g>
<g>
</g>
<g>
</g>
<g>
</g>
<g>
</g>
<g>
</g>
<g>
</g>
<g>
</g>
<g>
</g>
</svg>
