<?xml version="1.0" encoding="iso-8859-1"?>
<!-- Generator: Adobe Illustrator 19.0.0, SVG Export Plug-In . SVG Version: 6.00 Build 0)  -->
<svg xmlns="http://www.w3.org/2000/svg" xmlns:xlink="http://www.w3.org/1999/xlink" version="1.1" id="Capa_1" x="0px" y="0px" viewBox="0 0 60 60" style="enable-background:new 0 0 60 60;" xml:space="preserve" width="512px" height="512px">
<g>
	<path d="M55,38H31v16h24V38z M35,41h10v2H35V41z M51,51H35v-2h16V51z M51,47H35v-2h16V47z" fill="#FFFFFF"/>
	<path d="M29,7l-4-6H4v1v1v2H2v2v2H0v50h60V24v-2v-7V9V8V7H29z M57,56H29V36h28V56z M58,22H31.515l-3.571-5H58V22z M58,15H25l-4-6H4   V7h18l4,6h32V15z M58,11H27l-4-6H6V3h18l4,6h30V11z" fill="#FFFFFF"/>
</g>
<g>
</g>
<g>
</g>
<g>
</g>
<g>
</g>
<g>
</g>
<g>
</g>
<g>
</g>
<g>
</g>
<g>
</g>
<g>
</g>
<g>
</g>
<g>
</g>
<g>
</g>
<g>
</g>
<g>
</g>
</svg>
