<?xml version="1.0" encoding="iso-8859-1"?>
<!-- Generator: Adobe Illustrator 17.1.0, SVG Export Plug-In . SVG Version: 6.00 Build 0)  -->
<!DOCTYPE svg PUBLIC "-//W3C//DTD SVG 1.1//EN" "http://www.w3.org/Graphics/SVG/1.1/DTD/svg11.dtd">
<svg xmlns="http://www.w3.org/2000/svg" xmlns:xlink="http://www.w3.org/1999/xlink" version="1.1" id="Capa_1" x="0px" y="0px" viewBox="0 0 434.997 434.997" style="enable-background:new 0 0 434.997 434.997;" xml:space="preserve" width="512px" height="512px">
<g>
	<path d="M74.575,281.775c14.73,7.672,43.244,12.17,44.508,12.365c0.342,0.053,2.078,0.662,2.078,2.246v21.426   c0,6.164,5.145,11.18,11.467,11.18h10.234c6.322,0,11.467-5.016,11.467-11.18v-22.547c0-2.107,1.559-2.295,1.877-2.371   c32.508-7.299,52.537-31.088,52.537-60.953c0-30.686-17.033-50.504-56.945-66.274c-30.361-12.17-39.143-19.533-39.143-32.826   c0-10.639,8.061-23.061,30.771-23.061c20.09,0,35.5,7.918,35.639,7.99c1.625,0.865,3.438,1.324,5.238,1.324   c4.402,0,8.289-2.66,9.902-6.777l5.518-14.113c1.922-5.137-0.996-9.621-4.713-11.225c-12.367-5.387-36.543-9.553-36.793-9.596   c-0.389-0.066-1.74-0.357-1.74-1.941l-0.08-20.465c0-6.166-5.145-11.182-11.467-11.182h-9.895c-6.318,0-11.461,5.016-11.461,11.184   l0.023,21.52c0,1.646-1.785,2.363-2.438,2.52c-30.52,7.268-49.59,29.621-49.59,57.822c0,35.15,29.055,51.035,60.428,62.957   c25.082,9.848,35.313,19.832,35.313,34.475c0,15.938-14.494,27.068-35.246,27.068c-17.727,0-41.717-11.236-41.957-11.35   c-1.535-0.729-3.16-1.098-4.832-1.098c-4.57,0-8.547,2.764-10.133,7.037l-5.271,14.268   C67.999,275.527,70.883,279.852,74.575,281.775z" fill="#FFFFFF"/>
	<path d="M413.351,86.175L383.758,13.05C380.501,5.001,373.721,0,366.067,0c-6.06,0-11.709,3.037-15.908,8.552L302.37,71.314   c-4.73,6.212-5.933,13.416-3.299,19.764c2.635,6.349,8.585,10.585,16.326,11.623l18.994,2.543   c-18.828,124.368-71.874,210.619-157.892,256.581c-68.467,36.583-133.946,33.103-135.27,33.024   c-10.989-0.76-20.532,7.578-21.287,18.588c-0.755,11.02,7.566,20.565,18.586,21.32c0.592,0.041,3.775,0.239,9.093,0.239   c22.339,0,82.324-3.501,145.883-36.914c46.309-24.344,84.916-59.517,114.752-104.541c32.799-49.498,54.867-110.967,65.764-182.993   l18.505,2.478c1.131,0.152,2.259,0.229,3.354,0.229h0.001c6.79,0,12.674-2.949,16.141-8.093   C415.6,99.852,416.086,92.931,413.351,86.175z" fill="#FFFFFF"/>
</g>
<g>
</g>
<g>
</g>
<g>
</g>
<g>
</g>
<g>
</g>
<g>
</g>
<g>
</g>
<g>
</g>
<g>
</g>
<g>
</g>
<g>
</g>
<g>
</g>
<g>
</g>
<g>
</g>
<g>
</g>
</svg>
