<?xml version="1.0" encoding="iso-8859-1"?>
<!-- Generator: Adobe Illustrator 18.0.0, SVG Export Plug-In . SVG Version: 6.00 Build 0)  -->
<!DOCTYPE svg PUBLIC "-//W3C//DTD SVG 1.1//EN" "http://www.w3.org/Graphics/SVG/1.1/DTD/svg11.dtd">
<svg version="1.1" id="Capa_1" xmlns="http://www.w3.org/2000/svg" xmlns:xlink="http://www.w3.org/1999/xlink" x="0px" y="0px"
	 viewBox="0 0 54 54" style="enable-background:new 0 0 54 54;" xml:space="preserve">
<g>
	<path style="fill:#57B0E3;" d="M27,54c-0.552,0-1-0.448-1-1V8c0-0.552,0.448-1,1-1s1,0.448,1,1v45C28,53.552,27.552,54,27,54z"/>
	<path style="fill:#57B0E3;" d="M11,25c-0.256,0-0.512-0.098-0.707-0.293c-0.391-0.391-0.391-1.023,0-1.414l16-16
		c0.391-0.391,1.023-0.391,1.414,0s0.391,1.023,0,1.414l-16,16C11.512,24.902,11.256,25,11,25z"/>
	<path style="fill:#57B0E3;" d="M43,25c-0.256,0-0.512-0.098-0.707-0.293l-16-16c-0.391-0.391-0.391-1.023,0-1.414
		s1.023-0.391,1.414,0l16,16c0.391,0.391,0.391,1.023,0,1.414C43.512,24.902,43.256,25,43,25z"/>
	<path style="fill:#57B0E3;" d="M43,2H11c-0.552,0-1-0.448-1-1s0.448-1,1-1h32c0.552,0,1,0.448,1,1S43.552,2,43,2z"/>
</g>
<g>
</g>
<g>
</g>
<g>
</g>
<g>
</g>
<g>
</g>
<g>
</g>
<g>
</g>
<g>
</g>
<g>
</g>
<g>
</g>
<g>
</g>
<g>
</g>
<g>
</g>
<g>
</g>
<g>
</g>
</svg>
