<?xml version="1.0" encoding="iso-8859-1"?>
<!-- Generator: Adobe Illustrator 18.1.1, SVG Export Plug-In . SVG Version: 6.00 Build 0)  -->
<svg version="1.1" id="Capa_1" xmlns="http://www.w3.org/2000/svg" xmlns:xlink="http://www.w3.org/1999/xlink" x="0px" y="0px"
	 viewBox="0 0 211.156 211.156" style="enable-background:new 0 0 211.156 211.156;" xml:space="preserve">
<g>
	<g>
		<path style="fill:#010002;" d="M182.06,87.516h-28.824c-11.746-16.295-30.674-26.015-50.651-26.015
			c-21.126,0-40.641,10.554-52.24,28.251H29.096C13.052,89.753,0,102.805,0,118.842v10.243c0,16.037,13.052,29.085,29.096,29.085
			h21.251c11.592,17.701,31.107,28.251,52.24,28.251c21.752,0,42.234-11.671,53.518-30.481h25.957
			c16.051,0,29.092-13.048,29.092-29.089v-10.243C211.152,100.565,198.111,87.516,182.06,87.516z M182.06,152.809l-50.981,0.007
			c-10.543,0-19.805,0-24.64-0.24c4.867-2.298,12.494-6.066,12.494-12.87v-23.098c0-14.315,11.646-25.965,25.972-25.965h37.159
			c14.323,0,25.972,11.649,25.972,25.965v10.243C208.031,141.163,196.382,152.809,182.06,152.809z M29.096,92.878h22.955
			l0.462-0.723c10.973-17.232,29.69-27.521,50.072-27.521c18.381,0,35.381,8.332,46.74,22.883h-4.423
			c-16.051,0-29.103,13.048-29.103,29.092v23.098c0,5.01-6.943,8.278-11.127,10.239c-2.949,1.381-4.431,2.076-4.058,3.743
			c0.469,2.126,0.501,2.251,30.735,2.251h21.087c-11.034,17.143-29.601,27.357-49.846,27.357c-20.385,0-39.099-10.296-50.072-27.525
			l-0.462-0.723H29.096c-14.315,0-25.965-11.649-25.965-25.961v-10.243C3.131,104.527,14.777,92.878,29.096,92.878z"/>
		<path style="fill:#010002;" d="M48.873,143.708h5.83l5.579-20.407c1.12-3.901,1.929-7.201,2.613-10.665
			c0.48,3.003,1.167,6.259,2.24,10.651l4.939,20.424h5.834l11.034-38.927l0.14-0.501h-5.934l-5.171,19.784l-0.218,0.87
			c-0.927,3.701-1.811,7.226-2.52,10.636c-0.601-3.618-1.503-7.58-2.401-11.377l-4.699-19.612l-0.079-0.301h-5.834l-5.236,19.784
			c-1.106,4.187-2.158,8.171-2.838,11.649c-0.659-3.364-1.539-7.401-2.523-11.578l-4.588-19.551l-0.079-0.301h-6.102l9.935,39.135
			L48.873,143.708z"/>
		<rect x="89.919" y="115.17" style="fill:#010002;" width="5.83" height="28.541"/>
		<path style="fill:#010002;" d="M92.717,111.266c1.077,0,2.033-0.372,2.691-1.056c0.623-0.641,0.948-1.51,0.913-2.437
			c0-2.061-1.471-3.55-3.489-3.55c-2.029,0-3.55,1.528-3.55,3.55C89.285,109.766,90.76,111.266,92.717,111.266z"/>
		<polygon style="fill:#010002;" points="132.815,142.856 138.391,142.856 138.391,126.143 152.366,126.143 152.366,121.401 
			138.391,121.401 138.391,109.92 153.518,109.92 153.518,105.128 132.815,105.128 		"/>
		<rect x="157.953" y="115.542" style="fill:#010002;" width="5.604" height="27.314"/>
		<path style="fill:#010002;" d="M160.751,105.071c-1.94,0-3.411,1.467-3.411,3.411c0,1.911,1.417,3.357,3.31,3.357
			c1.034,0,1.95-0.365,2.588-1.013c0.591-0.619,0.902-1.449,0.866-2.341C164.105,106.506,162.702,105.071,160.751,105.071z"/>
		<path style="fill:#010002;" d="M49.943,80.591c2.219-1.406,4.631-3.149,7.183-5.189c5.801-4.66,9.162-9.802,9.72-14.874
			c0.598-5.039-1.134-10.25-5.003-15.071c-3.654-4.563-7.981-7.036-12.852-7.355c-4.753-0.379-9.641,1.589-15.074,5.952
			c-2.659,2.129-5.218,4.52-7.601,7.104l-0.225,0.243l23.556,29.372L49.943,80.591z M51.278,73.795L33.137,51.177
			c0.709-0.83,1.918-2.079,3.858-3.64c3.389-2.72,6.732-4.098,9.942-4.098c3.811,0,7.423,2.008,10.432,5.816
			c3.11,3.869,4.481,7.73,4.08,11.467c-0.401,3.772-2.598,7.279-6.521,10.422C53.801,72.045,52.398,73.14,51.278,73.795z"/>
		<path style="fill:#010002;" d="M67.894,31.658c0.401,0,0.809-0.072,1.202-0.218c0.984-0.369,1.739-1.038,2.112-1.882
			c0.34-0.791,0.34-1.696,0-2.52c-0.68-1.857-2.545-2.763-4.388-2.072c-0.895,0.329-1.6,0.966-1.979,1.782
			c-0.379,0.82-0.408,1.768-0.072,2.652C65.275,30.774,66.506,31.658,67.894,31.658z"/>
		<polygon style="fill:#010002;" points="77.314,61.591 77.446,61.971 82.786,59.988 73.313,34.335 73.177,33.959 67.834,35.927 		
			"/>
		<path style="fill:#010002;" d="M85.026,39.657l2.802,18.334l0.061,0.394l5.579-0.852l-2.237-14.602
			c-0.122-0.787-0.136-1.532-0.122-2.219c0.1-3.683,2.147-6.37,5.211-6.839c0.633-0.093,1.102-0.104,1.589-0.082l0.49,0.032
			l-0.812-5.368L97.28,28.43c-0.508-0.057-0.941-0.039-1.5,0.05c-3.06,0.462-5.511,2.759-6.51,5.984l-0.784-4.252l-5.046,0.773
			l0.097,0.412C84.039,33.676,84.515,36.303,85.026,39.657z"/>
		<path style="fill:#010002;" d="M114.226,58.181c1.313,0.186,2.616,0.279,3.854,0.279c2.498,0,4.327-0.383,5.418-0.709l0.315-0.089
			l-0.426-4.388l-0.444,0.122c-1.002,0.268-2.387,0.58-4.28,0.58c-0.97,0-2.008-0.079-3.142-0.24
			c-5.275-0.73-8.077-4.348-7.576-9.702l18.356,2.559l0.347,0.05l0.143-0.562c0.132-0.497,0.311-1.188,0.437-2.069
			c0.834-5.98-1.195-13.385-9.62-14.555c-0.648-0.089-1.292-0.14-1.925-0.14c-6.71,0-11.953,5.279-13.045,13.134
			c-0.576,4.091,0.183,7.73,2.194,10.515C106.872,55.811,110.125,57.612,114.226,58.181z M108.632,39.789
			c0.891-2.953,3.199-6.195,7.011-6.195c0.322,0,0.648,0.021,0.981,0.072c1.804,0.251,3.199,1.002,4.109,2.244
			c1.449,1.95,1.374,4.552,1.238,5.737L108.632,39.789z"/>
		<path style="fill:#010002;" d="M137.263,66.294c3.167,1.639,6.166,2.219,7.77,2.219h0.311l1.149-4.413l-0.48-0.036
			c-1.56-0.1-3.432-0.304-5.805-1.532c-4.76-2.459-6.166-7.573-3.511-12.723c1.865-3.593,4.86-5.651,8.217-5.651
			c1.446,0,2.928,0.379,4.398,1.142c2.444,1.26,3.69,2.659,4.302,3.611l0.279,0.419l3.31-3.454l-0.2-0.268
			c-0.87-1.192-2.842-3.089-5.54-4.474c-2.455-1.27-4.95-1.918-7.412-1.918c-5.304,0-9.888,2.97-12.562,8.153
			c-1.918,3.697-2.387,7.448-1.36,10.84C131.165,61.62,133.631,64.419,137.263,66.294z"/>
		<path style="fill:#010002;" d="M153.547,66.183c-2.473,2.559-3.622,4.67-3.622,6.632c-0.089,1.908,0.769,3.797,2.494,5.461
			c1.303,1.253,2.63,2.183,3.722,2.616l0.268,0.107l2.899-3.393l-0.433-0.233c-0.48-0.261-1.249-0.759-2.194-1.671
			c-1.65-1.593-1.349-3.314,1.002-5.762l9.817-10.189l5.061,4.882l3.142-3.264l-5.057-4.878l5.468-5.662l-5.071-2.802l-4.423,4.592
			l-3.01-2.906l-3.142,3.26l3.01,2.902L153.547,66.183z"/>
	</g>
</g>
<g>
</g>
<g>
</g>
<g>
</g>
<g>
</g>
<g>
</g>
<g>
</g>
<g>
</g>
<g>
</g>
<g>
</g>
<g>
</g>
<g>
</g>
<g>
</g>
<g>
</g>
<g>
</g>
<g>
</g>
</svg>
